<!-- Generator: Adobe Illustrator 18.0.0, SVG Export Plug-In  -->
<svg version="1.1"
	 xmlns="http://www.w3.org/2000/svg" xmlns:xlink="http://www.w3.org/1999/xlink" xmlns:a="http://ns.adobe.com/AdobeSVGViewerExtensions/3.0/"
	 x="0px" y="0px" width="21.8px" height="15px" viewBox="0 0 21.8 15" enable-background="new 0 0 21.8 15" xml:space="preserve">
<defs>
</defs>
<g id="Envelope_1_">
	<g>
		<path fill-rule="evenodd" clip-rule="evenodd" fill="#FFFFFF" d="M21.8,1.6c0-0.1,0-0.3-0.1-0.4C21.6,0.4,21,0,20.1,0H2.4
			C1.6,0,0.7,0.3,0.3,0.9c0,0-0.1,0-0.1,0.1C0,1.1,0,1.4,0,1.6c0,0.1,0,0.1,0,0.2v10.9C0,13.7,1.3,15,2.4,15h17.7
			c1.1,0,1.7-1.3,1.7-2.4V1.7C21.8,1.6,21.8,1.6,21.8,1.6z M2.4,1.4h17.4h0.3c0,0,0,0,0,0l-9.2,7.3L1.7,1.4C1.9,1.4,2.2,1.4,2.4,1.4
			z M20.1,13.6H2.4c-0.4,0-1-0.6-1-1V2.8l9.1,7.3c0.1,0.1,0.3,0.2,0.4,0.2c0.2,0,0.3-0.1,0.4-0.2l9.1-7.3v9.8
			C20.5,13,20.5,13.6,20.1,13.6z"/>
	</g>
</g>
</svg>
