<!-- Generator: Adobe Illustrator 18.0.0, SVG Export Plug-In  -->
<svg version="1.1"
	 xmlns="http://www.w3.org/2000/svg" xmlns:xlink="http://www.w3.org/1999/xlink" xmlns:a="http://ns.adobe.com/AdobeSVGViewerExtensions/3.0/"
	 x="0px" y="0px" width="20.1px" height="20px" viewBox="0 0 20.1 20" enable-background="new 0 0 20.1 20" xml:space="preserve">
<defs>
</defs>
<g id="Magnifier_2_">
	<g>
		<path fill-rule="evenodd" clip-rule="evenodd" fill="#FFFFFF" d="M19.9,18.9l-6.1-6.1c1.1-1.4,1.8-3.1,1.8-5
			c0-4.3-3.5-7.8-7.8-7.8C3.5,0,0,3.5,0,7.8c0,4.3,3.5,7.8,7.8,7.8c2,0,3.7-0.7,5.1-1.9l6.1,6.1c0.2,0.2,0.6,0.2,0.9,0
			C20.1,19.6,20.1,19.2,19.9,18.9z M7.8,14.4c-3.6,0-6.6-2.9-6.6-6.6c0-3.6,2.9-6.6,6.6-6.6c3.6,0,6.6,2.9,6.6,6.6
			C14.4,11.4,11.4,14.4,7.8,14.4z"/>
	</g>
</g>
</svg>
